<mxfile host="app.diagrams.net" agent="Mozilla/5.0 (Windows NT 10.0; Win64; x64) AppleWebKit/537.36 (KHTML, like Gecko) Chrome/131.0.0.0 Safari/537.36" version="24.8.9">
  <diagram name="Page-1" id="2-PoORyMGy_y9vsZpG3h">
    <mxGraphModel dx="2206" dy="1148" grid="1" gridSize="10" guides="1" tooltips="1" connect="1" arrows="1" fold="1" page="1" pageScale="1" pageWidth="850" pageHeight="1100" math="0" shadow="0">
      <root>
        <mxCell id="0" />
        <mxCell id="1" parent="0" />
        <mxCell id="FhuHimOJSMJdWpnOMMoI-15" style="edgeStyle=orthogonalEdgeStyle;rounded=0;orthogonalLoop=1;jettySize=auto;html=1;" edge="1" parent="1" source="FhuHimOJSMJdWpnOMMoI-1" target="FhuHimOJSMJdWpnOMMoI-16">
          <mxGeometry relative="1" as="geometry">
            <mxPoint x="280" y="55" as="targetPoint" />
          </mxGeometry>
        </mxCell>
        <mxCell id="FhuHimOJSMJdWpnOMMoI-18" style="edgeStyle=orthogonalEdgeStyle;rounded=0;orthogonalLoop=1;jettySize=auto;html=1;entryX=1;entryY=0.5;entryDx=0;entryDy=0;" edge="1" parent="1" source="FhuHimOJSMJdWpnOMMoI-1" target="FhuHimOJSMJdWpnOMMoI-17">
          <mxGeometry relative="1" as="geometry" />
        </mxCell>
        <mxCell id="FhuHimOJSMJdWpnOMMoI-1" value="&lt;b&gt;Home Page&lt;/b&gt;" style="ellipse;whiteSpace=wrap;html=1;fillColor=#fff2cc;strokeColor=#d6b656;" vertex="1" parent="1">
          <mxGeometry x="350" y="20" width="120" height="70" as="geometry" />
        </mxCell>
        <mxCell id="FhuHimOJSMJdWpnOMMoI-3" value="" style="rounded=0;whiteSpace=wrap;html=1;fillColor=#d5e8d4;strokeColor=#82b366;" vertex="1" parent="1">
          <mxGeometry x="80" y="150" width="500" height="90" as="geometry" />
        </mxCell>
        <mxCell id="FhuHimOJSMJdWpnOMMoI-5" value="Footer" style="rounded=0;whiteSpace=wrap;html=1;fillColor=#d5e8d4;strokeColor=#82b366;" vertex="1" parent="1">
          <mxGeometry x="690" y="40" width="140" height="250" as="geometry" />
        </mxCell>
        <mxCell id="FhuHimOJSMJdWpnOMMoI-6" value="&lt;b&gt;Nav Bar&lt;/b&gt;" style="text;html=1;align=center;verticalAlign=middle;whiteSpace=wrap;rounded=0;" vertex="1" parent="1">
          <mxGeometry x="370" y="150" width="60" height="30" as="geometry" />
        </mxCell>
        <mxCell id="FhuHimOJSMJdWpnOMMoI-8" value="&lt;b&gt;Home&lt;/b&gt;" style="rounded=1;whiteSpace=wrap;html=1;fillColor=#008a00;fontColor=#ffffff;strokeColor=#005700;" vertex="1" parent="1">
          <mxGeometry x="250" y="180" width="70" height="40" as="geometry" />
        </mxCell>
        <mxCell id="FhuHimOJSMJdWpnOMMoI-9" value="&lt;b&gt;Logo&lt;/b&gt;" style="rounded=1;whiteSpace=wrap;html=1;fillColor=#60a917;fontColor=#ffffff;strokeColor=#2D7600;" vertex="1" parent="1">
          <mxGeometry x="90" y="165" width="120" height="60" as="geometry" />
        </mxCell>
        <mxCell id="FhuHimOJSMJdWpnOMMoI-78" style="edgeStyle=orthogonalEdgeStyle;rounded=0;orthogonalLoop=1;jettySize=auto;html=1;" edge="1" parent="1" source="FhuHimOJSMJdWpnOMMoI-12">
          <mxGeometry relative="1" as="geometry">
            <mxPoint x="230" y="330" as="targetPoint" />
            <Array as="points">
              <mxPoint x="365" y="260" />
              <mxPoint x="231" y="260" />
            </Array>
          </mxGeometry>
        </mxCell>
        <mxCell id="FhuHimOJSMJdWpnOMMoI-12" value="&lt;b&gt;About Us&lt;/b&gt;" style="rounded=1;whiteSpace=wrap;html=1;fillColor=#008a00;fontColor=#ffffff;strokeColor=#005700;" vertex="1" parent="1">
          <mxGeometry x="330" y="180" width="70" height="40" as="geometry" />
        </mxCell>
        <mxCell id="FhuHimOJSMJdWpnOMMoI-76" style="edgeStyle=orthogonalEdgeStyle;rounded=0;orthogonalLoop=1;jettySize=auto;html=1;" edge="1" parent="1" source="FhuHimOJSMJdWpnOMMoI-13">
          <mxGeometry relative="1" as="geometry">
            <mxPoint x="410" y="270" as="targetPoint" />
          </mxGeometry>
        </mxCell>
        <mxCell id="FhuHimOJSMJdWpnOMMoI-13" value="&lt;b&gt;Contact&lt;/b&gt;" style="rounded=1;whiteSpace=wrap;html=1;fillColor=#008a00;fontColor=#ffffff;strokeColor=#005700;" vertex="1" parent="1">
          <mxGeometry x="410" y="180" width="70" height="40" as="geometry" />
        </mxCell>
        <mxCell id="FhuHimOJSMJdWpnOMMoI-60" style="edgeStyle=orthogonalEdgeStyle;rounded=0;orthogonalLoop=1;jettySize=auto;html=1;" edge="1" parent="1" source="FhuHimOJSMJdWpnOMMoI-14">
          <mxGeometry relative="1" as="geometry">
            <mxPoint x="525" y="340" as="targetPoint" />
          </mxGeometry>
        </mxCell>
        <mxCell id="FhuHimOJSMJdWpnOMMoI-62" style="edgeStyle=orthogonalEdgeStyle;rounded=0;orthogonalLoop=1;jettySize=auto;html=1;entryX=0.5;entryY=0;entryDx=0;entryDy=0;" edge="1" parent="1" source="FhuHimOJSMJdWpnOMMoI-14" target="FhuHimOJSMJdWpnOMMoI-71">
          <mxGeometry relative="1" as="geometry">
            <mxPoint x="320" y="430" as="targetPoint" />
            <Array as="points">
              <mxPoint x="525" y="340" />
              <mxPoint x="321" y="340" />
            </Array>
          </mxGeometry>
        </mxCell>
        <mxCell id="FhuHimOJSMJdWpnOMMoI-14" value="&lt;b&gt;Login&lt;/b&gt;" style="rounded=1;whiteSpace=wrap;html=1;fillColor=#008a00;fontColor=#ffffff;strokeColor=#005700;" vertex="1" parent="1">
          <mxGeometry x="490" y="180" width="70" height="40" as="geometry" />
        </mxCell>
        <mxCell id="FhuHimOJSMJdWpnOMMoI-16" value="&lt;b&gt;Light / Dark Theme&lt;/b&gt;" style="rounded=1;whiteSpace=wrap;html=1;fillColor=#60a917;fontColor=#ffffff;strokeColor=#2D7600;" vertex="1" parent="1">
          <mxGeometry x="190" y="30" width="90" height="42.5" as="geometry" />
        </mxCell>
        <mxCell id="FhuHimOJSMJdWpnOMMoI-17" value="&lt;b&gt;Program Visit&lt;/b&gt;" style="rounded=1;whiteSpace=wrap;html=1;fillColor=#f0a30a;fontColor=#000000;strokeColor=#BD7000;" vertex="1" parent="1">
          <mxGeometry x="187.5" y="90" width="95" height="40" as="geometry" />
        </mxCell>
        <mxCell id="FhuHimOJSMJdWpnOMMoI-21" value="" style="endArrow=none;dashed=1;html=1;dashPattern=1 3;strokeWidth=2;rounded=0;entryX=0.233;entryY=0.957;entryDx=0;entryDy=0;entryPerimeter=0;" edge="1" parent="1" target="FhuHimOJSMJdWpnOMMoI-1">
          <mxGeometry width="50" height="50" relative="1" as="geometry">
            <mxPoint x="300" y="180" as="sourcePoint" />
            <mxPoint x="350" y="130" as="targetPoint" />
          </mxGeometry>
        </mxCell>
        <mxCell id="FhuHimOJSMJdWpnOMMoI-28" value="&lt;h1 style=&quot;margin-top: 0px;&quot;&gt;Heading&lt;/h1&gt;&lt;p&gt;Lorem ipsum dolor sit amet, consectetur adipisicing elit, sed do eiusmod tempor incididunt ut labore et dolore magna aliqua.&lt;/p&gt;" style="text;html=1;whiteSpace=wrap;overflow=hidden;rounded=0;" vertex="1" parent="1">
          <mxGeometry x="490" y="10" width="200" height="110" as="geometry" />
        </mxCell>
        <mxCell id="FhuHimOJSMJdWpnOMMoI-29" value="Time" style="shape=table;startSize=30;container=1;collapsible=0;childLayout=tableLayout;strokeColor=default;fontSize=16;" vertex="1" parent="1">
          <mxGeometry x="90" y="80" width="80" height="60" as="geometry" />
        </mxCell>
        <mxCell id="FhuHimOJSMJdWpnOMMoI-30" value="" style="shape=tableRow;horizontal=0;startSize=0;swimlaneHead=0;swimlaneBody=0;strokeColor=inherit;top=0;left=0;bottom=0;right=0;collapsible=0;dropTarget=0;fillColor=none;points=[[0,0.5],[1,0.5]];portConstraint=eastwest;fontSize=16;" vertex="1" parent="FhuHimOJSMJdWpnOMMoI-29">
          <mxGeometry y="30" width="80" height="10" as="geometry" />
        </mxCell>
        <mxCell id="FhuHimOJSMJdWpnOMMoI-31" value="" style="shape=partialRectangle;html=1;whiteSpace=wrap;connectable=0;strokeColor=inherit;overflow=hidden;fillColor=none;top=0;left=0;bottom=0;right=0;pointerEvents=1;fontSize=16;" vertex="1" parent="FhuHimOJSMJdWpnOMMoI-30">
          <mxGeometry width="27" height="10" as="geometry">
            <mxRectangle width="27" height="10" as="alternateBounds" />
          </mxGeometry>
        </mxCell>
        <mxCell id="FhuHimOJSMJdWpnOMMoI-32" value="" style="shape=partialRectangle;html=1;whiteSpace=wrap;connectable=0;strokeColor=inherit;overflow=hidden;fillColor=none;top=0;left=0;bottom=0;right=0;pointerEvents=1;fontSize=16;" vertex="1" parent="FhuHimOJSMJdWpnOMMoI-30">
          <mxGeometry x="27" width="26" height="10" as="geometry">
            <mxRectangle width="26" height="10" as="alternateBounds" />
          </mxGeometry>
        </mxCell>
        <mxCell id="FhuHimOJSMJdWpnOMMoI-33" value="" style="shape=partialRectangle;html=1;whiteSpace=wrap;connectable=0;strokeColor=inherit;overflow=hidden;fillColor=none;top=0;left=0;bottom=0;right=0;pointerEvents=1;fontSize=16;" vertex="1" parent="FhuHimOJSMJdWpnOMMoI-30">
          <mxGeometry x="53" width="27" height="10" as="geometry">
            <mxRectangle width="27" height="10" as="alternateBounds" />
          </mxGeometry>
        </mxCell>
        <mxCell id="FhuHimOJSMJdWpnOMMoI-34" value="" style="shape=tableRow;horizontal=0;startSize=0;swimlaneHead=0;swimlaneBody=0;strokeColor=inherit;top=0;left=0;bottom=0;right=0;collapsible=0;dropTarget=0;fillColor=none;points=[[0,0.5],[1,0.5]];portConstraint=eastwest;fontSize=16;" vertex="1" parent="FhuHimOJSMJdWpnOMMoI-29">
          <mxGeometry y="40" width="80" height="10" as="geometry" />
        </mxCell>
        <mxCell id="FhuHimOJSMJdWpnOMMoI-35" value="" style="shape=partialRectangle;html=1;whiteSpace=wrap;connectable=0;strokeColor=inherit;overflow=hidden;fillColor=none;top=0;left=0;bottom=0;right=0;pointerEvents=1;fontSize=16;" vertex="1" parent="FhuHimOJSMJdWpnOMMoI-34">
          <mxGeometry width="27" height="10" as="geometry">
            <mxRectangle width="27" height="10" as="alternateBounds" />
          </mxGeometry>
        </mxCell>
        <mxCell id="FhuHimOJSMJdWpnOMMoI-36" value="" style="shape=partialRectangle;html=1;whiteSpace=wrap;connectable=0;strokeColor=inherit;overflow=hidden;fillColor=none;top=0;left=0;bottom=0;right=0;pointerEvents=1;fontSize=16;" vertex="1" parent="FhuHimOJSMJdWpnOMMoI-34">
          <mxGeometry x="27" width="26" height="10" as="geometry">
            <mxRectangle width="26" height="10" as="alternateBounds" />
          </mxGeometry>
        </mxCell>
        <mxCell id="FhuHimOJSMJdWpnOMMoI-37" value="" style="shape=partialRectangle;html=1;whiteSpace=wrap;connectable=0;strokeColor=inherit;overflow=hidden;fillColor=none;top=0;left=0;bottom=0;right=0;pointerEvents=1;fontSize=16;" vertex="1" parent="FhuHimOJSMJdWpnOMMoI-34">
          <mxGeometry x="53" width="27" height="10" as="geometry">
            <mxRectangle width="27" height="10" as="alternateBounds" />
          </mxGeometry>
        </mxCell>
        <mxCell id="FhuHimOJSMJdWpnOMMoI-38" value="" style="shape=tableRow;horizontal=0;startSize=0;swimlaneHead=0;swimlaneBody=0;strokeColor=inherit;top=0;left=0;bottom=0;right=0;collapsible=0;dropTarget=0;fillColor=none;points=[[0,0.5],[1,0.5]];portConstraint=eastwest;fontSize=16;" vertex="1" parent="FhuHimOJSMJdWpnOMMoI-29">
          <mxGeometry y="50" width="80" height="10" as="geometry" />
        </mxCell>
        <mxCell id="FhuHimOJSMJdWpnOMMoI-39" value="" style="shape=partialRectangle;html=1;whiteSpace=wrap;connectable=0;strokeColor=inherit;overflow=hidden;fillColor=none;top=0;left=0;bottom=0;right=0;pointerEvents=1;fontSize=16;" vertex="1" parent="FhuHimOJSMJdWpnOMMoI-38">
          <mxGeometry width="27" height="10" as="geometry">
            <mxRectangle width="27" height="10" as="alternateBounds" />
          </mxGeometry>
        </mxCell>
        <mxCell id="FhuHimOJSMJdWpnOMMoI-40" value="" style="shape=partialRectangle;html=1;whiteSpace=wrap;connectable=0;strokeColor=inherit;overflow=hidden;fillColor=none;top=0;left=0;bottom=0;right=0;pointerEvents=1;fontSize=16;" vertex="1" parent="FhuHimOJSMJdWpnOMMoI-38">
          <mxGeometry x="27" width="26" height="10" as="geometry">
            <mxRectangle width="26" height="10" as="alternateBounds" />
          </mxGeometry>
        </mxCell>
        <mxCell id="FhuHimOJSMJdWpnOMMoI-41" value="" style="shape=partialRectangle;html=1;whiteSpace=wrap;connectable=0;strokeColor=inherit;overflow=hidden;fillColor=none;top=0;left=0;bottom=0;right=0;pointerEvents=1;fontSize=16;" vertex="1" parent="FhuHimOJSMJdWpnOMMoI-38">
          <mxGeometry x="53" width="27" height="10" as="geometry">
            <mxRectangle width="27" height="10" as="alternateBounds" />
          </mxGeometry>
        </mxCell>
        <mxCell id="FhuHimOJSMJdWpnOMMoI-42" value="" style="rounded=0;whiteSpace=wrap;html=1;fillColor=#d5e8d4;strokeColor=#82b366;" vertex="1" parent="1">
          <mxGeometry x="30" y="500" width="430" height="580" as="geometry" />
        </mxCell>
        <mxCell id="FhuHimOJSMJdWpnOMMoI-92" style="edgeStyle=orthogonalEdgeStyle;rounded=0;orthogonalLoop=1;jettySize=auto;html=1;entryX=1;entryY=0.5;entryDx=0;entryDy=0;" edge="1" parent="1" source="FhuHimOJSMJdWpnOMMoI-43" target="FhuHimOJSMJdWpnOMMoI-14">
          <mxGeometry relative="1" as="geometry">
            <Array as="points">
              <mxPoint x="640" y="200" />
            </Array>
          </mxGeometry>
        </mxCell>
        <mxCell id="FhuHimOJSMJdWpnOMMoI-43" value="" style="rounded=0;whiteSpace=wrap;html=1;fillColor=#d5e8d4;strokeColor=#82b366;" vertex="1" parent="1">
          <mxGeometry x="540" y="350" width="280" height="260" as="geometry" />
        </mxCell>
        <mxCell id="FhuHimOJSMJdWpnOMMoI-50" style="edgeStyle=orthogonalEdgeStyle;rounded=0;orthogonalLoop=1;jettySize=auto;html=1;entryX=0.884;entryY=-0.003;entryDx=0;entryDy=0;entryPerimeter=0;" edge="1" parent="1" source="FhuHimOJSMJdWpnOMMoI-14" target="FhuHimOJSMJdWpnOMMoI-42">
          <mxGeometry relative="1" as="geometry">
            <Array as="points">
              <mxPoint x="525" y="340" />
              <mxPoint x="410" y="340" />
            </Array>
          </mxGeometry>
        </mxCell>
        <mxCell id="FhuHimOJSMJdWpnOMMoI-64" value="&lt;b&gt;Yes&lt;/b&gt;" style="rhombus;whiteSpace=wrap;html=1;" vertex="1" parent="1">
          <mxGeometry x="505" y="290" width="40" height="40" as="geometry" />
        </mxCell>
        <mxCell id="FhuHimOJSMJdWpnOMMoI-68" value="&lt;b&gt;Yes&lt;/b&gt;" style="rhombus;whiteSpace=wrap;html=1;" vertex="1" parent="1">
          <mxGeometry x="390" y="410" width="40" height="40" as="geometry" />
        </mxCell>
        <mxCell id="FhuHimOJSMJdWpnOMMoI-69" value="&lt;b&gt;No&lt;/b&gt;" style="rhombus;whiteSpace=wrap;html=1;" vertex="1" parent="1">
          <mxGeometry x="340" y="320" width="40" height="40" as="geometry" />
        </mxCell>
        <mxCell id="FhuHimOJSMJdWpnOMMoI-71" value="&lt;b&gt;Login Failed Alert&lt;/b&gt;" style="rounded=0;whiteSpace=wrap;html=1;fillColor=#f8cecc;strokeColor=#b85450;" vertex="1" parent="1">
          <mxGeometry x="260" y="400" width="120" height="60" as="geometry" />
        </mxCell>
        <mxCell id="FhuHimOJSMJdWpnOMMoI-77" value="&lt;b&gt;Contact Page&lt;/b&gt;" style="ellipse;whiteSpace=wrap;html=1;fillColor=#fff2cc;strokeColor=#d6b656;" vertex="1" parent="1">
          <mxGeometry x="355" y="270" width="110" height="40" as="geometry" />
        </mxCell>
        <mxCell id="FhuHimOJSMJdWpnOMMoI-79" value="&lt;b&gt;About Us Page&lt;/b&gt;" style="ellipse;whiteSpace=wrap;html=1;fillColor=#fff2cc;strokeColor=#d6b656;" vertex="1" parent="1">
          <mxGeometry x="180" y="330" width="110" height="50" as="geometry" />
        </mxCell>
        <mxCell id="FhuHimOJSMJdWpnOMMoI-80" value="&lt;b&gt;Banking Page&lt;/b&gt;" style="ellipse;whiteSpace=wrap;html=1;fillColor=#fff2cc;strokeColor=#d6b656;" vertex="1" parent="1">
          <mxGeometry x="50" y="440" width="180" height="110" as="geometry" />
        </mxCell>
        <mxCell id="FhuHimOJSMJdWpnOMMoI-83" style="edgeStyle=orthogonalEdgeStyle;rounded=0;orthogonalLoop=1;jettySize=auto;html=1;" edge="1" parent="1" source="FhuHimOJSMJdWpnOMMoI-84">
          <mxGeometry relative="1" as="geometry">
            <mxPoint x="600" y="350" as="targetPoint" />
          </mxGeometry>
        </mxCell>
        <mxCell id="FhuHimOJSMJdWpnOMMoI-82" value="&lt;b&gt;Existing User?&lt;/b&gt;" style="rounded=0;whiteSpace=wrap;html=1;" vertex="1" parent="1">
          <mxGeometry x="485" y="250" width="80" height="30" as="geometry" />
        </mxCell>
        <mxCell id="FhuHimOJSMJdWpnOMMoI-87" value="&lt;b&gt;Sign Up Form&lt;/b&gt;" style="rounded=1;whiteSpace=wrap;html=1;fillColor=#f0a30a;fontColor=#000000;strokeColor=#BD7000;" vertex="1" parent="1">
          <mxGeometry x="680" y="320" width="120" height="60" as="geometry" />
        </mxCell>
        <mxCell id="FhuHimOJSMJdWpnOMMoI-93" value="&lt;b&gt;Account Created&lt;/b&gt;" style="rounded=0;whiteSpace=wrap;html=1;" vertex="1" parent="1">
          <mxGeometry x="600" y="220" width="80" height="40" as="geometry" />
        </mxCell>
        <mxCell id="FhuHimOJSMJdWpnOMMoI-97" value="&lt;b&gt;User&lt;/b&gt;" style="rounded=1;whiteSpace=wrap;html=1;fillColor=#f0a30a;fontColor=#000000;strokeColor=#BD7000;" vertex="1" parent="1">
          <mxGeometry x="560" y="400" width="100" height="30" as="geometry" />
        </mxCell>
        <mxCell id="FhuHimOJSMJdWpnOMMoI-98" value="&lt;b&gt;Password&lt;/b&gt;" style="rounded=1;whiteSpace=wrap;html=1;fillColor=#f0a30a;fontColor=#000000;strokeColor=#BD7000;" vertex="1" parent="1">
          <mxGeometry x="560" y="440" width="100" height="30" as="geometry" />
        </mxCell>
        <mxCell id="FhuHimOJSMJdWpnOMMoI-102" value="" style="endArrow=classic;html=1;rounded=0;" edge="1" parent="1">
          <mxGeometry width="50" height="50" relative="1" as="geometry">
            <mxPoint x="609.7" y="495" as="sourcePoint" />
            <mxPoint x="610" y="530" as="targetPoint" />
          </mxGeometry>
        </mxCell>
        <mxCell id="FhuHimOJSMJdWpnOMMoI-103" value="&lt;b&gt;Validate Regex&lt;/b&gt;" style="rounded=1;whiteSpace=wrap;html=1;fillColor=#647687;fontColor=#ffffff;strokeColor=#314354;" vertex="1" parent="1">
          <mxGeometry x="550" y="530" width="120" height="60" as="geometry" />
        </mxCell>
        <mxCell id="FhuHimOJSMJdWpnOMMoI-104" value="&lt;b&gt;Email&lt;/b&gt;" style="rounded=1;whiteSpace=wrap;html=1;fillColor=#f0a30a;fontColor=#000000;strokeColor=#BD7000;" vertex="1" parent="1">
          <mxGeometry x="560" y="360" width="100" height="30" as="geometry" />
        </mxCell>
        <mxCell id="FhuHimOJSMJdWpnOMMoI-105" value="&lt;b&gt;Confirm PW&lt;/b&gt;" style="rounded=1;whiteSpace=wrap;html=1;fillColor=#f0a30a;fontColor=#000000;strokeColor=#BD7000;" vertex="1" parent="1">
          <mxGeometry x="560" y="480" width="100" height="30" as="geometry" />
        </mxCell>
        <mxCell id="FhuHimOJSMJdWpnOMMoI-106" value="" style="endArrow=classic;html=1;rounded=0;" edge="1" parent="1">
          <mxGeometry width="50" height="50" relative="1" as="geometry">
            <mxPoint x="670" y="559.5" as="sourcePoint" />
            <mxPoint x="740" y="559.5" as="targetPoint" />
          </mxGeometry>
        </mxCell>
        <mxCell id="FhuHimOJSMJdWpnOMMoI-107" value="" style="endArrow=classic;html=1;rounded=0;" edge="1" parent="1">
          <mxGeometry width="50" height="50" relative="1" as="geometry">
            <mxPoint x="739.5" y="560" as="sourcePoint" />
            <mxPoint x="739.5" y="520" as="targetPoint" />
          </mxGeometry>
        </mxCell>
        <mxCell id="FhuHimOJSMJdWpnOMMoI-108" value="&lt;b&gt;Generate User&lt;/b&gt;" style="rounded=1;whiteSpace=wrap;html=1;fillColor=#647687;fontColor=#ffffff;strokeColor=#314354;" vertex="1" parent="1">
          <mxGeometry x="680" y="460" width="120" height="60" as="geometry" />
        </mxCell>
        <mxCell id="FhuHimOJSMJdWpnOMMoI-109" value="" style="edgeStyle=orthogonalEdgeStyle;rounded=0;orthogonalLoop=1;jettySize=auto;html=1;" edge="1" parent="1" source="FhuHimOJSMJdWpnOMMoI-82" target="FhuHimOJSMJdWpnOMMoI-84">
          <mxGeometry relative="1" as="geometry">
            <mxPoint x="600" y="350" as="targetPoint" />
            <mxPoint x="565" y="265" as="sourcePoint" />
          </mxGeometry>
        </mxCell>
        <mxCell id="FhuHimOJSMJdWpnOMMoI-84" value="&lt;b&gt;No&lt;/b&gt;" style="rhombus;whiteSpace=wrap;html=1;" vertex="1" parent="1">
          <mxGeometry x="580" y="290" width="40" height="40" as="geometry" />
        </mxCell>
        <mxCell id="FhuHimOJSMJdWpnOMMoI-110" value="&lt;b&gt;Login Form&lt;/b&gt;" style="rounded=1;whiteSpace=wrap;html=1;fillColor=#f0a30a;fontColor=#000000;strokeColor=#BD7000;" vertex="1" parent="1">
          <mxGeometry x="425" y="320" width="80" height="40" as="geometry" />
        </mxCell>
        <mxCell id="FhuHimOJSMJdWpnOMMoI-113" value="&lt;b&gt;Correct Credentials?&lt;/b&gt;" style="rounded=0;whiteSpace=wrap;html=1;" vertex="1" parent="1">
          <mxGeometry x="415" y="370" width="100" height="40" as="geometry" />
        </mxCell>
        <mxCell id="FhuHimOJSMJdWpnOMMoI-114" value="" style="endArrow=none;dashed=1;html=1;dashPattern=1 3;strokeWidth=2;rounded=0;" edge="1" parent="1">
          <mxGeometry width="50" height="50" relative="1" as="geometry">
            <mxPoint x="464.71" y="370" as="sourcePoint" />
            <mxPoint x="464.71" y="360" as="targetPoint" />
          </mxGeometry>
        </mxCell>
      </root>
    </mxGraphModel>
  </diagram>
</mxfile>
